<svg width="3862" height="1145" viewBox="0 0 3862 1145" fill="none" xmlns="http://www.w3.org/2000/svg">
<path d="M3835.42 1008.96C3835.42 1023.36 3832.58 1037.62 3827.06 1050.92C3821.55 1064.22 3813.46 1076.3 3803.27 1086.48C3793.08 1096.65 3780.99 1104.72 3767.68 1110.22C3754.37 1115.72 3740.11 1118.54 3725.7 1118.53H135.324C106.224 1118.56 78.3033 1107.03 57.7022 1086.49C37.1011 1065.94 25.5067 1038.05 25.4688 1008.96V135.183C25.5067 106.077 37.0965 78.1761 57.6935 57.606C78.2905 37.0359 106.211 25.4783 135.324 25.4707H3725.67C3740.08 25.4707 3754.35 28.3087 3767.67 33.8226C3780.98 39.3365 3793.07 47.4183 3803.26 57.6063C3813.45 67.7944 3821.53 79.8892 3827.04 93.1999C3832.56 106.511 3835.39 120.776 3835.39 135.183L3835.42 1008.96Z" fill="white"/>
<path d="M3725.7 1144.02H135.323C99.4754 1144.01 65.0944 1129.79 39.7245 1104.47C14.3547 1079.15 0.0682091 1044.8 0 1008.96L0 135.212C0.053032 99.3552 14.33 64.9839 39.6991 39.6377C65.0681 14.2915 99.4576 0.0400297 135.323 0.00976562L3725.67 0.00976563C3761.53 0.0551308 3795.92 14.3114 3821.28 39.6544C3846.65 64.9974 3860.93 99.3599 3861 135.212V1008.96C3861.05 1083.46 3800.25 1144.02 3725.7 1144.02Z" fill="#A6A6A6"/>
<path d="M3835.42 1008.96C3835.42 1023.36 3832.58 1037.62 3827.06 1050.92C3821.55 1064.22 3813.46 1076.3 3803.27 1086.48C3793.08 1096.65 3780.99 1104.72 3767.68 1110.22C3754.37 1115.72 3740.11 1118.54 3725.7 1118.53H135.324C106.224 1118.56 78.3033 1107.03 57.7022 1086.49C37.1011 1065.94 25.5067 1038.05 25.4688 1008.96V135.183C25.5067 106.077 37.0965 78.1761 57.6935 57.606C78.2905 37.0359 106.211 25.4783 135.324 25.4707H3725.67C3740.08 25.4707 3754.35 28.3087 3767.67 33.8226C3780.98 39.3365 3793.07 47.4183 3803.26 57.6063C3813.45 67.7944 3821.53 79.8892 3827.04 93.1999C3832.56 106.511 3835.39 120.776 3835.39 135.183L3835.42 1008.96Z" fill="black"/>
<path d="M862.131 565.992C861.301 473.788 937.647 428.931 941.139 426.842C897.9 363.819 830.882 355.208 807.332 354.521C751.045 348.599 696.446 388.193 667.773 388.193C638.528 388.193 594.374 355.093 546.786 356.066C485.549 357.01 428.26 392.455 396.84 447.497C331.997 559.727 380.357 724.652 442.482 815.369C473.559 859.826 509.872 909.403 557.403 907.658C603.903 905.77 621.273 878.049 677.388 878.049C732.988 878.049 749.299 907.658 797.774 906.543C847.68 905.77 879.1 861.914 909.089 817.085C945.002 766.191 959.424 716.013 959.996 713.438C958.852 713.038 863.104 676.476 862.131 565.992ZM770.561 294.845C795.571 263.576 812.683 221.036 807.933 177.866C771.734 179.468 726.464 202.898 700.395 233.48C677.331 260.429 656.727 304.6 662.05 346.139C702.713 349.171 744.463 325.627 770.561 294.845Z" fill="white"/>
<path d="M3725.7 0.00976563H1802.59L2555.84 1144.02H3725.7C3761.56 1143.99 3795.94 1129.74 3821.31 1104.41C3846.67 1079.08 3860.96 1044.72 3861.03 1008.87V135.212C3860.96 99.3576 3846.68 64.9906 3821.32 39.646C3795.95 14.3014 3761.57 0.0475831 3725.7 0.00976562V0.00976563Z" fill="url(#paint0_linear_2147_2110)"/>
<path d="M1535.66 901.279H1470.67L1435.08 789.45H1311.34L1277.43 901.279H1214.16L1336.78 520.563H1412.5L1535.66 901.279ZM1424.35 742.533L1392.15 643.12C1388.75 632.964 1382.34 609.047 1372.95 571.399H1371.81C1368.03 587.591 1361.99 611.508 1353.72 643.12L1322.07 742.533H1424.35ZM1850.38 760.642C1850.38 807.33 1837.7 844.234 1812.32 871.326C1789.6 895.443 1761.35 907.487 1727.67 907.487C1691.3 907.487 1665.15 894.527 1649.27 868.551V1012.59H1588.26V716.986C1588.26 687.662 1587.48 657.595 1586 626.756H1639.65L1643.06 670.269H1644.2C1664.55 637.484 1695.42 621.091 1736.86 621.091C1769.25 621.091 1796.29 633.879 1817.93 659.483C1839.53 685.145 1850.38 718.845 1850.38 760.642ZM1788.22 762.873C1788.22 736.153 1782.21 714.125 1770.14 696.76C1756.95 678.708 1739.23 669.668 1717.03 669.668C1701.98 669.668 1688.3 674.703 1676.08 684.63C1663.83 694.643 1655.82 707.717 1652.07 723.909C1650.4 729.964 1649.45 736.197 1649.24 742.475V788.277C1649.24 808.217 1655.36 825.067 1667.61 838.856C1679.86 852.588 1695.77 859.483 1715.34 859.483C1738.32 859.483 1756.2 850.585 1768.99 832.934C1781.81 815.226 1788.22 791.882 1788.22 762.873ZM2166.21 760.642C2166.21 807.33 2153.53 844.234 2128.15 871.326C2105.4 895.443 2077.18 907.487 2043.47 907.487C2007.1 907.487 1980.95 894.527 1965.07 868.551V1012.59H1904.06V716.986C1904.06 687.662 1903.29 657.595 1901.8 626.756H1955.45L1958.86 670.269H1960C1980.32 637.484 2011.2 621.091 2052.66 621.091C2085.02 621.091 2112.07 633.879 2133.76 659.483C2155.33 685.145 2166.21 718.845 2166.21 760.642ZM2104.03 762.873C2104.03 736.153 2097.99 714.125 2085.91 696.76C2072.72 678.708 2055.06 669.668 2032.86 669.668C2017.81 669.668 2004.13 674.703 1991.85 684.63C1979.6 694.643 1971.62 707.717 1967.87 723.909C1966.01 731.461 1965.01 737.612 1965.01 742.475V788.277C1965.01 808.217 1971.16 825.067 1983.35 838.856C1995.6 852.559 2011.51 859.483 2031.14 859.483C2054.15 859.483 2072.03 850.585 2084.8 832.934C2097.62 815.226 2104.03 791.882 2104.03 762.873ZM2519.32 794.485C2519.32 826.898 2507.99 853.246 2485.47 873.586C2460.69 895.786 2426.09 906.915 2381.74 906.915C2340.76 906.915 2307.91 899.019 2283.13 883.199L2297.24 832.362C2323.99 848.211 2353.38 856.107 2385.37 856.107C2408.38 856.107 2426.27 850.9 2439.03 840.573C2451.82 830.216 2458.29 816.37 2458.29 799.091C2458.29 783.614 2452.94 770.654 2442.43 760.098C2431.87 749.57 2414.42 739.758 2389.9 730.746C2323.22 705.886 2289.86 669.525 2289.86 621.692C2289.86 590.452 2301.65 564.876 2325.17 544.879C2348.69 524.911 2379.88 514.927 2418.68 514.927C2453.34 514.927 2482.21 520.963 2505.13 533.007L2489.82 582.728C2468.25 571.056 2443.89 565.22 2416.65 565.22C2395.13 565.22 2378.25 570.512 2366.17 581.04C2356.01 590.452 2350.86 601.924 2350.86 615.541C2350.86 630.561 2356.73 643.034 2368.41 652.818C2378.54 661.829 2397.02 671.642 2423.75 682.17C2456.54 695.387 2480.64 710.778 2496.06 728.457C2511.6 746.137 2519.32 768.194 2519.32 794.485ZM2721.55 672.529H2654.3V805.814C2654.3 839.714 2666.15 856.622 2689.9 856.622C2700.8 856.622 2709.85 855.706 2717 853.79L2718.69 900.106C2706.67 904.597 2690.85 906.858 2671.24 906.858C2647.15 906.858 2628.32 899.505 2614.73 884.801C2601.19 870.096 2594.38 845.465 2594.38 810.792V672.414H2554.32V626.641H2594.38V576.377L2654.3 558.297V626.641H2721.55V672.529ZM3024.36 761.757C3024.36 803.954 3012.29 838.599 2988.19 865.69C2962.98 893.583 2929.44 907.487 2887.64 907.487C2847.29 907.487 2815.21 894.127 2791.29 867.436C2767.36 840.687 2755.4 806.987 2755.4 766.335C2755.4 723.794 2767.77 688.95 2792.4 661.858C2817.1 634.737 2850.35 621.177 2892.16 621.177C2932.45 621.177 2964.81 634.566 2989.31 661.286C3012.72 687.205 3024.36 720.676 3024.36 761.757ZM2961.12 763.159C2961.12 738.013 2955.68 716.442 2944.78 698.39C2931.99 676.591 2913.68 665.691 2889.95 665.691C2865.52 665.691 2846.77 676.591 2834.01 698.39C2823.08 716.442 2817.64 738.384 2817.64 764.303C2817.64 789.479 2823.08 811.106 2834.01 829.101C2847.2 850.9 2865.6 861.8 2889.44 861.8C2912.76 861.8 2931.05 850.671 2944.27 828.557C2955.48 810.076 2961.12 788.363 2961.12 763.159ZM3222.75 680.396C3216.41 679.251 3209.97 678.686 3203.52 678.708C3182.06 678.708 3165.47 686.775 3153.79 703.025C3143.66 717.329 3138.57 735.409 3138.57 757.237V901.279H3077.56V713.209C3077.61 684.391 3077.02 655.576 3075.78 626.784H3128.92L3131.16 679.309H3132.84C3139.31 661.257 3149.44 646.696 3163.35 635.796C3176.08 626.272 3191.55 621.114 3207.45 621.091C3213.08 621.091 3218.18 621.492 3222.7 622.207L3222.75 680.396ZM3495.6 751.029C3495.76 760.301 3495.01 769.566 3493.37 778.693H3310.35C3311.03 805.814 3319.9 826.583 3336.9 840.887C3352.33 853.646 3372.27 860.055 3396.77 860.055C3423.87 860.055 3448.59 855.763 3470.82 847.095L3480.38 889.407C3454.4 900.735 3423.72 906.371 3388.32 906.371C3345.74 906.371 3312.32 893.841 3288 868.837C3263.73 843.805 3251.57 810.162 3251.57 768.022C3251.57 726.655 3262.87 692.182 3285.51 664.69C3309.2 635.338 3341.22 620.662 3381.51 620.662C3421.09 620.662 3451.05 635.338 3471.4 664.69C3487.51 687.948 3495.6 716.785 3495.6 751.029ZM3437.43 735.209C3437.86 717.1 3433.85 701.509 3425.58 688.32C3415.02 671.327 3398.77 662.859 3376.99 662.859C3357.05 662.859 3340.79 671.127 3328.43 687.72C3318.27 700.908 3312.24 716.757 3310.38 735.152L3437.43 735.209Z" fill="white"/>
<path d="M1293.74 385.961C1276.77 385.961 1262.09 385.132 1249.88 383.73V199.666C1266.96 197.026 1284.23 195.725 1301.53 195.775C1371.49 195.775 1403.71 230.19 1403.71 286.291C1403.71 351.002 1365.65 385.961 1293.74 385.961ZM1303.99 219.377C1294.54 219.377 1286.5 219.949 1279.84 221.322V361.244C1283.44 361.816 1290.37 362.074 1300.1 362.074C1345.94 362.074 1372.04 335.983 1372.04 287.12C1372.04 243.55 1348.43 219.377 1303.99 219.377ZM1504.13 387.363C1464.69 387.363 1439.14 357.925 1439.14 317.96C1439.14 276.307 1465.24 246.611 1506.36 246.611C1545.22 246.611 1571.34 274.647 1571.34 315.757C1571.34 357.925 1544.42 387.363 1504.13 387.363ZM1505.27 268.525C1483.61 268.525 1469.73 288.78 1469.73 317.102C1469.73 344.88 1483.89 365.135 1504.98 365.135C1526.07 365.135 1540.24 343.478 1540.24 316.53C1540.24 289.066 1526.36 268.525 1505.27 268.525ZM1796.21 249.386L1754 384.302H1726.5L1709.01 325.713C1704.67 311.381 1701.05 296.839 1698.17 282.143H1697.6C1695.39 296.847 1691.21 311.58 1686.78 325.713L1668.18 384.302H1640.39L1600.67 249.386H1631.49L1646.77 313.526C1650.38 328.802 1653.41 343.221 1655.93 356.838H1656.5C1658.71 345.481 1662.31 331.291 1667.61 313.812L1686.78 249.415H1711.22L1729.56 312.439C1733.99 327.715 1737.6 342.706 1740.4 356.867H1741.21C1743.15 342.992 1746.21 328.259 1750.36 312.439L1766.76 249.415L1796.21 249.386ZM1951.59 384.302H1921.6V306.831C1921.6 282.972 1912.44 271.014 1894.39 271.014C1876.62 271.014 1864.4 286.291 1864.4 304.056V384.302H1834.41V287.95C1834.41 276.021 1834.12 263.233 1833.29 249.358H1859.67L1861.08 270.184H1861.91C1869.98 255.766 1886.34 246.611 1904.69 246.611C1933.02 246.611 1951.62 268.268 1951.62 303.513L1951.59 384.302ZM2034.29 384.302H2004.27V187.479H2034.29V384.302ZM2143.63 387.363C2104.22 387.363 2078.64 357.925 2078.64 317.96C2078.64 276.307 2104.74 246.611 2145.83 246.611C2184.72 246.611 2210.82 274.647 2210.82 315.757C2210.85 357.925 2183.89 387.363 2143.63 387.363ZM2144.74 268.525C2123.08 268.525 2109.2 288.78 2109.2 317.102C2109.2 344.88 2123.4 365.135 2144.43 365.135C2165.55 365.135 2179.68 343.478 2179.68 316.53C2179.71 289.066 2165.86 268.525 2144.74 268.525ZM2329.06 384.302L2326.88 368.768H2326.08C2316.92 381.27 2303.56 387.363 2286.62 387.363C2262.44 387.363 2245.27 370.427 2245.27 347.655C2245.27 314.355 2274.14 297.133 2324.14 297.133V294.644C2324.14 276.879 2314.72 267.982 2296.12 267.982C2282.81 267.982 2271.14 271.329 2260.87 277.994L2254.77 258.284C2267.25 250.502 2282.81 246.611 2301.1 246.611C2336.35 246.611 2354.15 265.207 2354.15 302.426V352.118C2354.15 365.735 2354.75 376.292 2356.1 384.331L2329.06 384.302ZM2324.94 317.102C2291.63 317.102 2274.92 325.169 2274.92 344.308C2274.92 358.469 2283.53 365.392 2295.49 365.392C2310.74 365.392 2324.94 353.749 2324.94 337.928V317.102ZM2499.78 384.302L2498.38 362.646H2497.55C2488.93 379.01 2474.45 387.363 2454.22 387.363C2421.69 387.363 2397.59 358.755 2397.59 318.504C2397.59 276.307 2422.57 246.583 2456.68 246.583C2474.74 246.583 2487.53 252.676 2494.74 264.921H2495.34V187.479H2525.36V347.941C2525.36 360.986 2525.68 373.202 2526.48 384.302H2499.78ZM2495.34 304.915C2495.34 286.033 2482.84 269.927 2463.75 269.927C2441.52 269.927 2427.92 289.638 2427.92 317.388C2427.92 344.594 2442.03 363.218 2463.15 363.218C2482.01 363.218 2495.34 346.826 2495.34 327.401V304.915ZM2715.68 387.363C2676.28 387.363 2650.73 357.925 2650.73 317.96C2650.73 276.307 2676.82 246.611 2717.92 246.611C2756.8 246.611 2782.9 274.647 2782.9 315.757C2782.93 357.925 2756 387.363 2715.68 387.363ZM2716.8 268.525C2695.17 268.525 2681.29 288.78 2681.29 317.102C2681.29 344.88 2695.45 365.135 2716.51 365.135C2737.63 365.135 2751.77 343.478 2751.77 316.53C2751.83 289.066 2737.95 268.525 2716.8 268.525ZM2944.18 384.302H2914.16V306.831C2914.16 282.972 2905 271.014 2886.95 271.014C2869.18 271.014 2856.99 286.291 2856.99 304.056V384.302H2826.97V287.95C2826.97 276.021 2826.68 263.233 2825.85 249.358H2852.24L2853.64 270.184H2854.47C2862.51 255.766 2878.91 246.583 2897.22 246.583C2925.55 246.583 2944.18 268.239 2944.18 303.484V384.302ZM3145.95 271.872H3112.95V337.385C3112.95 354.063 3118.74 362.388 3130.41 362.388C3135.7 362.388 3140.14 361.816 3143.72 360.987L3144.55 383.759C3138.74 385.99 3130.95 387.106 3121.28 387.106C3097.65 387.106 3083.51 374.06 3083.51 339.902V271.872H3063.82V249.386H3083.51V224.669L3112.95 215.772V249.358H3145.95V271.872ZM3304.71 384.302H3274.75V307.404C3274.75 283.258 3265.62 271.043 3247.53 271.043C3232 271.043 3217.52 281.599 3217.52 302.969V384.302H3187.56V187.479H3217.52V268.525H3218.12C3227.56 253.821 3241.24 246.583 3258.69 246.583C3287.25 246.583 3304.71 268.783 3304.71 304.056V384.302ZM3467.36 324.053H3377.36C3377.94 349.6 3394.85 364.019 3419.89 364.019C3433.19 364.019 3445.44 361.788 3456.26 357.639L3460.92 378.466C3448.16 384.016 3433.14 386.791 3415.65 386.791C3373.44 386.791 3348.46 360.128 3348.46 318.79C3348.46 277.422 3374.04 246.325 3412.27 246.325C3446.76 246.325 3468.39 271.872 3468.39 310.465C3468.58 315.019 3468.24 319.58 3467.36 324.053ZM3439.86 302.683C3439.86 281.857 3429.36 267.152 3410.19 267.152C3392.96 267.152 3379.34 282.143 3377.39 302.683H3439.86Z" fill="white"/>
<defs>
<linearGradient id="paint0_linear_2147_2110" x1="2831.77" y1="1147.06" x2="2831.77" y2="-2978.79" gradientUnits="userSpaceOnUse">
<stop stop-color="#1A1A1A" stop-opacity="0.1"/>
<stop offset="0.123" stop-color="#212121" stop-opacity="0.151"/>
<stop offset="0.308" stop-color="#353535" stop-opacity="0.227"/>
<stop offset="0.532" stop-color="#575757" stop-opacity="0.318"/>
<stop offset="0.783" stop-color="#858585" stop-opacity="0.421"/>
<stop offset="1" stop-color="#B3B3B3" stop-opacity="0.51"/>
</linearGradient>
</defs>
</svg>
